# xmcd CD database file
#
# Track frame offsets:
#	150
#	20308
#	55257
#	78132
#	91814
#	109467
#	127020
#	156337
#	185873
#	215095
#	235668
#
# Disc length: 3546 seconds
#
# Revision: 0
# Processed by: cddbd v1.5.2PL0 Copyright (c) Steve Scherf et al.
# Submitted via: CDex 1.51
#
DISCID=940dd80b
DTITLE=Bill Ramsey mit Bigband der Deutschen oper - Premiere
DYEAR=2008
DGENRE=Jazz
TTITLE0=Love for Sale 01
TTITLE1=Satin Doll 02
TTITLE2=Caught Speeding 03
TTITLE3=Work Song 04
TTITLE4=Indiana 05
TTITLE5=Route 66 06
TTITLE6=Brush Hour 07
TTITLE7=I Ain't gonna ask no more  08
TTITLE8=All Blues 09
TTITLE9=Georgia on my Mind 10
TTITLE10=I Got Rhythm  11
EXTD=YEAR: 2008
EXTT0=
EXTT1=
EXTT2=
EXTT3=
EXTT4=
EXTT5=
EXTT6=
EXTT7=
EXTT8=
EXTT9=
EXTT10=
PLAYORDER=
